<svg xmlns="http://www.w3.org/2000/svg" fill="none" viewBox="0 0 14 14" height="250" width="250"><path fill="#D7E0FF" d="M8.58707 0.849664C7.66718 0.784187 6.71969 0.75 5.75196 0.75C4.78421 0.75 3.83672 0.784187 2.91682 0.849665C1.90458 0.921717 1.13021 1.67654 1.08449 2.59563C1.01387 4.01513 0.976685 5.48869 0.976685 7C0.976685 8.5113 1.01387 9.98487 1.08449 11.4044C1.13021 12.3235 1.90459 13.0783 2.91682 13.1503C3.83672 13.2158 4.78421 13.25 5.75196 13.25C6.71969 13.25 7.66718 13.2158 8.58707 13.1503C9.59931 13.0783 10.3737 12.3235 10.4194 11.4044C10.4446 10.8979 10.4655 10.3846 10.4821 9.86507V4.13496C10.4655 3.61546 10.4446 3.1021 10.4194 2.59563C10.3737 1.67654 9.59931 0.921715 8.58707 0.849664Z"></path><path stroke="#0d6efd" stroke-linecap="round" stroke-linejoin="round" d="M7 4.12878C5.74024 5.16092 5.11076 5.79027 4.12874 7.00005C5.11076 8.20983 5.74024 8.83918 7 9.87131"></path><path stroke="#0d6efd" stroke-linecap="round" d="M10.4821 4.13496C10.4655 3.61546 10.4446 3.1021 10.4194 2.59563C10.3737 1.67654 9.59931 0.921715 8.58707 0.849664C7.66718 0.784187 6.71969 0.75 5.75196 0.75C4.78421 0.75 3.83672 0.784187 2.91682 0.849665C1.90458 0.921717 1.13021 1.67654 1.08449 2.59563C1.01387 4.01513 0.976685 5.48869 0.976685 7C0.976685 8.5113 1.01387 9.98487 1.08449 11.4044C1.13021 12.3235 1.90459 13.0783 2.91682 13.1503C3.83672 13.2158 4.78421 13.25 5.75195 13.25C6.71969 13.25 7.66718 13.2158 8.58707 13.1503C9.59931 13.0783 10.3737 12.3235 10.4194 11.4044C10.4446 10.8979 10.4655 10.3846 10.4821 9.86507"></path><path stroke="#0d6efd" stroke-linecap="round" stroke-linejoin="round" d="M13.0234 7L4.16064 7"></path></svg>